<?xml version="1.0" encoding="UTF-8"?>
<svg width="188px" height="105px" viewBox="0 0 188 105" version="1.1" xmlns="http://www.w3.org/2000/svg" xmlns:xlink="http://www.w3.org/1999/xlink">
    <!-- Generator: Sketch 52.6 (67491) - http://www.bohemiancoding.com/sketch -->
    <title>Group</title>
    <desc>Created with Sketch.</desc>
    <g id="Page-1" stroke="none" stroke-width="1" fill="none" fill-rule="evenodd">
        <g id="Group" transform="translate(0.000000, 1.000000)">
            <polygon id="Shape" stroke="#000000" points="90.9179507 95.9619929 90.9179507 84.7439609 164.940116 11.5840625 164.940116 20.9604985"></polygon>
            <polygon id="Path-2" stroke="#000000" points="90.9179507 95.9619929 12.3004557 63.0328726 12.3004557 51.9474287 90.9179507 84.2493301"></polygon>
            <path d="M12.3004557,51.9474287 L71.8405083,0" id="Path-3" stroke="#000000"></path>
            <path d="M164.940116,11.5840625 L150.749599,7.48386081" id="Path-4" stroke="#000000"></path>
            <polygon id="Path-5" stroke="#000000" points="88.3855274 73.9555363 88.3855274 64.6454498 115.264157 38.846556 115.264157 47.2859886"></polygon>
            <polygon id="Path-6" stroke="#000000" points="88.3855274 73.9555363 28.9169107 50.0971222 28.9169107 40.8526161 88.3855274 64.7004906"></polygon>
            <polygon id="Path-8" stroke="#000000" points="121.225833 32.7966982 121.225833 41.9411736 150.749599 12.5449686 150.749599 4"></polygon>
            <path d="M48.1179285,23.7623322 L43.0669783,22.0725834 C41.3753733,20.8657276 41.7942971,19.4490302 44.3237497,17.8224911 C46.8532022,16.1959521 51.5574815,12.3775792 58.4365875,6.36737249 C60.0288929,5.45579083 61.5937674,5 63.1312111,5 C64.6686548,5 66.6195361,5.45579083 68.983855,6.36737249" id="Path" stroke="#4293D5" stroke-linecap="round"></path>
            <path d="M90.9179507,21.5660986 L115.264157,0" id="Path-10" stroke="#000000"></path>
            <path d="" id="Path-11" stroke="#000000"></path>
            <polyline id="Path-7" stroke="#000000" points="28.9169107 40.8526161 54.2907025 18.8199158 115.264157 38.1315302"></polyline>
            <path d="M85.6032137,20.3060218 L108,0.881424359" id="Path-13" stroke="#000000"></path>
            <path d="M61.0361236,13.4214163 L77.1877568,0" id="Path-15" stroke="#000000"></path>
            <text id="index.html" transform="translate(69.031578, 40.400650) rotate(22.000000) translate(-69.031578, -40.400650) " font-family="Gilroy-Extrabold, Gilroy" font-size="6" font-weight="600" fill="#000000">
                <tspan x="54.0315776" y="42.4006505">index.html</tspan>
            </text>
            <text id="app.js" transform="translate(120.483858, 13.500260) rotate(17.000000) translate(-120.483858, -13.500260) " font-family="Gilroy-Extrabold, Gilroy" font-size="6" font-weight="600" fill="#000000">
                <tspan x="111.483858" y="15.5002596">app.js</tspan>
            </text>
            <text id="styles.css" transform="translate(80.236122, 10.680535) rotate(17.000000) translate(-80.236122, -10.680535) " font-family="Gilroy-Extrabold, Gilroy" font-size="4" font-weight="600" fill="#000000">
                <tspan x="71.2361219" y="11.6805353">styles.css</tspan>
            </text>
            <text id="SERVER" transform="translate(33.411333, 66.530985) rotate(22.000000) translate(-33.411333, -66.530985) " font-family="Gilroy-Extrabold, Gilroy" font-size="7" font-weight="600" letter-spacing="1.57500005" fill="#000000">
                <tspan x="15.9113332" y="68.0309854">SERVE</tspan>
                <tspan x="44.1213334" y="68.0309854" letter-spacing="1.8375001">R</tspan>
            </text>
            <path d="M150.749599,3.16793122 L139.934025,0.881424359" id="Path-16" stroke="#000000"></path>
            <path d="M120.671412,42.7098884 L115.264157,40.8526161" id="Path-9" stroke="#000000"></path>
            <polyline id="Path-14" stroke="#000000" points="121.225833 32.6698554 90.4325253 22.0725834 90.4325253 29.7131463"></polyline>
            <polyline id="Path-12" stroke="#000000" points="85.6032137 28.4585651 85.6032137 20.8707931 61.0361236 13.9704733 61.0361236 20.3060218"></polyline>
            <path d="" id="Path-17" stroke="#979797"></path>
            <path d="M92.8837371,64.5702564 L99.4698619,66.5692231 C101.47858,67.198041 103.399885,66.5317188 105.233778,64.5702564 C107.06767,62.608794 117.707323,51.7520418 137.152735,32 C139.941513,29.6308168 140.338683,28.1466408 138.344244,27.547472 C136.349805,26.9483031 134.356026,26.4387894 132.362909,26.0189306" id="Path-18" stroke="#FFE434" stroke-linecap="round"></path>
        </g>
    </g>
</svg>
