<?xml version="1.0" encoding="UTF-8"?>
<svg width="1046px" height="825px" viewBox="0 0 1046 825" version="1.1" xmlns="http://www.w3.org/2000/svg" xmlns:xlink="http://www.w3.org/1999/xlink">
    <!-- Generator: Sketch 52.6 (67491) - http://www.bohemiancoding.com/sketch -->
    <title>js-solid-s</title>
    <desc>Created with Sketch.</desc>
    <g id="Page-1" stroke="none" stroke-width="1" fill="none" fill-rule="evenodd">
        <g id="js-solid-s" transform="translate(-63.000000, -19.000000)">
            <rect id="Rectangle" x="0" y="0" width="1200" height="941"></rect>
            <polygon id="Path" stroke-opacity="0" stroke="#FFD200" stroke-width="3" fill-opacity="0.2" fill="#FFDF57" points="258 634.866317 260.134944 648.172812 438.960282 843.132759 624.484215 724.040207 623.380518 710.640284 436.479016 537"></polygon>
            <polygon id="Path-Copy" stroke-opacity="0" stroke="#FFD200" stroke-width="3" fill-opacity="0.2" fill="#FFDF57" points="234 237.885856 235.8685 252.883463 381.670891 378.513094 632.805305 256.014381 632.805305 241.706214 477.475619 134"></polygon>
            <polygon id="Path-Copy-2" stroke-opacity="0" stroke="#FFD200" stroke-width="3" fill-opacity="0.2" fill="#FFDF57" points="515 83.5353568 515 97.2275217 627.880691 170.566169 786.688068 97.2275217 786.688068 83.5353568 672.901075 19"></polygon>
            <polygon id="Path-Copy-3" stroke-opacity="0" stroke="#FFD200" stroke-width="3" fill-opacity="0.2" fill="#FFDF57" points="650 172.036273 650 186.54226 769.608101 264.84082 930.711139 181.438605 931.60411 167.866258 810.009053 98"></polygon>
            <polygon id="Path-Copy-4" stroke-opacity="0" stroke="#FFD200" stroke-width="3" fill-opacity="0.2" fill="#FFDF57" points="795.464703 266.220938 795 281.171442 943.49157 379.710804 1106.35123 281.936402 1108.29904 267.54965 957.801277 182"></polygon>
            <polygon id="Path-Copy-5" stroke-opacity="0" stroke="#FFD200" stroke-width="3" fill-opacity="0.2" fill="#FFDF57" points="590 489.632752 590 504.880458 678.716934 579.081797 860.964247 467.918688 861.863101 453.237214 771.413735 388"></polygon>
            <polygon id="Path-Copy-6" stroke-opacity="0" stroke="#FFD200" stroke-width="3" fill-opacity="0.2" fill="#FFDF57" points="505 418.019781 505 432.922732 553.781555 474.638188 733.511655 375.726617 733.511655 361.476032 683.233618 325"></polygon>
            <polygon id="Path-Copy-7" stroke-opacity="0" stroke="#FFD200" stroke-width="3" fill-opacity="0.2" fill="#FFDF57" points="142 508.091981 143.963305 521.216566 220.239176 603.313439 365.989835 525.739234 363.823792 511.199966 285.092464 437"></polygon>
            <polygon id="Path-Copy-8" stroke-opacity="0" stroke="#FFD200" stroke-width="3" fill-opacity="0.2" fill="#FFDF57" points="63.9232418 424.383163 67.6275132 437 123.122104 498.269608 265.45175 429.341234 262.859773 415.527962 204.166418 359.832401"></polygon>
        </g>
    </g>
</svg>