<svg width="51" height="51" xmlns="http://www.w3.org/2000/svg"><g transform="translate(1 0)" fill="none" fill-rule="evenodd"><path d="M11.65 17.563l.675 3.845a.49.49 0 0 1-.206.494.518.518 0 0 1-.543.039l-3.531-1.816a1.195 1.195 0 0 0-1.089 0l-3.53 1.816a.519.519 0 0 1-.544-.039.491.491 0 0 1-.206-.494l.674-3.845c.065-.37-.06-.75-.336-1.012L.157 13.828a.504.504 0 0 1 .286-.861l3.948-.562c.381-.054.71-.287.88-.625L7.038 8.28A.508.508 0 0 1 7.5 8c.201 0 .374.105.463.281L9.73 11.78c.17.338.499.571.88.625l3.948.561a.504.504 0 0 1 .286.862l-2.857 2.723a1.128 1.128 0 0 0-.336 1.012z" stroke="#FFF"/><rect stroke="#FFF" x="19.5" y="9.5" width="12" height="12" rx="3"/><rect stroke="#FFF" x="37.5" y="9.5" width="12" height="12" rx="3"/><rect stroke="#FFF" x="19.5" y="27.5" width="12" height="12" rx="3"/><rect stroke="#FFF" x="1.5" y="27.5" width="12" height="12" rx="3"/><path d="M1 0h50v50H1z"/></g></svg>
