<svg width="87" height="87" xmlns="http://www.w3.org/2000/svg"><g fill="none" fill-rule="evenodd"><path stroke="#000" stroke-width="2" fill="#D8D8D8" d="M1 1h85v85H1z"/><path d="M19.78 20.9h16.695c4.347 0 8.001 1.449 10.962 4.41 2.961 2.961 4.473 6.489 4.473 10.71 0 4.221-1.512 7.749-4.473 10.71-2.961 2.961-6.615 4.41-10.962 4.41H29.86V65H19.78V20.9zm10.08 20.79h6.615c3.087 0 5.355-2.457 5.355-5.67s-2.268-5.67-5.355-5.67H29.86v11.34zm35.469-12.6c-2.205 2.205-5.733 2.205-8.001 0-2.205-2.268-2.205-5.796 0-8.001 2.268-2.268 5.796-2.268 8.001 0 2.268 2.205 2.268 5.733 0 8.001zM66.085 65h-9.45V33.5h9.45V65z" fill="#000"/></g></svg>
