<?xml version="1.0" encoding="UTF-8"?>
<svg width="42px" height="40px" viewBox="0 0 42 40" version="1.1" xmlns="http://www.w3.org/2000/svg" xmlns:xlink="http://www.w3.org/1999/xlink">
    <!-- Generator: Sketch 52.6 (67491) - http://www.bohemiancoding.com/sketch -->
    <title>Shape</title>
    <desc>Created with Sketch.</desc>
    <g id="Page-1" stroke="none" stroke-width="1" fill="none" fill-rule="evenodd">
        <g id="149220" transform="translate(1.000000, 1.000000)" fill-rule="nonzero" stroke="#FFFFFF">
            <path d="M39.1319171,17.2215816 C39.9192685,16.4607314 40.1972043,15.3440766 39.8575939,14.3060482 C39.5171826,13.2680198 38.6305113,12.5270248 37.541195,12.3697719 L27.8558923,10.9743504 C27.4433939,10.9147849 27.0869632,10.6582561 26.9027406,10.2873615 L22.5727086,1.5852369 C22.0865211,0.607568249 21.0997288,0 20,0 C18.9010722,0 17.9142798,0.607568249 17.4280924,1.5852369 L13.0972594,10.2873615 C12.9130368,10.6582561 12.5558052,10.9147849 12.1433068,10.9743504 L2.45800399,12.3705661 C1.36948874,12.5270248 0.482817372,13.2680198 0.142406052,14.3060482 C-0.197204299,15.3440766 0.0807315309,16.4607314 0.868082888,17.2215816 L7.87575026,23.9945777 C8.17451125,24.283669 8.31147675,24.6998334 8.24099158,25.1064673 L6.58699305,34.6711005 C6.40116852,35.7456624 6.83769598,36.8106938 7.72757121,37.452413 C8.61664548,38.0949263 9.77404397,38.178318 10.7488218,37.6692314 L19.4104877,33.1533712 C19.7797339,32.9611732 20.2202661,32.9611732 20.5895123,33.1533712 L29.2519792,37.6692314 C29.6748902,37.8900209 30.1330438,37.9988273 30.5887944,37.9988273 C31.1807097,37.9988273 31.770222,37.8153655 32.2732298,37.452413 C33.163105,36.8106938 33.5996324,35.7456624 33.4138079,34.6711005 L31.7590084,25.1072615 C31.6885233,24.6998334 31.8254887,24.2844632 32.1242497,23.9953719 L39.1319171,17.2215816 Z" id="Shape"></path>
        </g>
    </g>
</svg>